<svg xmlns="http://www.w3.org/2000/svg" viewBox="0 0 100 100" fill="none" role="img" aria-labelledby="t d">
  <title id="t">FUR — Chat Noir</title>
  <desc id="d">Steinlen homage in the Bindery palette: ink silhouette, brass glowing eyes, single oxblood tail accent. A black cat under gaslight.</desc>

  <!-- Sitting cat silhouette -->
  <path d="
    M 32 10 L 38 34 L 46 30 L 54 30 L 62 34 L 68 10
    L 74 38 Q 80 44 78 52 L 76 78 Q 80 88 70 90 L 64 90
    L 62 84 L 56 84 L 54 90 L 46 90 L 44 84 L 38 84 L 36 90
    L 30 90 Q 20 88 24 78 L 22 52 Q 20 44 26 38 Z
  " fill="#1E1E1E"/>

  <!-- Brass almond eyes -->
  <ellipse cx="40" cy="48" rx="3" ry="5.5" fill="#C9A961" transform="rotate(-12 40 48)"/>
  <ellipse cx="60" cy="48" rx="3" ry="5.5" fill="#C9A961" transform="rotate(12 60 48)"/>

  <!-- Ink slit pupils -->
  <ellipse cx="40" cy="48" rx="0.9" ry="3.8" fill="#1E1E1E" transform="rotate(-12 40 48)"/>
  <ellipse cx="60" cy="48" rx="0.9" ry="3.8" fill="#1E1E1E" transform="rotate(12 60 48)"/>

  <!-- Oxblood collar / tail-tip ribbon -->
  <path d="M 78 70 Q 96 60 92 42 Q 90 30 82 34"
        stroke="#1E1E1E" stroke-width="5.5" stroke-linecap="round" fill="none"/>
  <circle cx="82" cy="34" r="2" fill="#8B2635"/>
</svg>
